<mxfile host="app.diagrams.net" modified="2023-12-26T12:32:38.642Z" agent="Mozilla/5.0 (Windows NT 10.0; Win64; x64) AppleWebKit/537.36 (KHTML, like Gecko) Chrome/118.0.0.0 YaBrowser/23.11.0.0 Safari/537.36" etag="YsdImx2f_iUHVtT-a8Tg" version="22.1.11" type="google">
  <diagram name="Page-1" id="GM5D143dIY4asXw69tlK">
    <mxGraphModel grid="0" page="0" gridSize="10" guides="1" tooltips="1" connect="1" arrows="1" fold="1" pageScale="1" pageWidth="827" pageHeight="1169" math="0" shadow="0">
      <root>
        <mxCell id="0" />
        <mxCell id="1" parent="0" />
        <mxCell id="5zJq9rHpQnvoExwED2j1-155" value="" style="rounded=0;whiteSpace=wrap;html=1;fillColor=none;dashed=1;" vertex="1" parent="1">
          <mxGeometry x="1400" y="-73" width="430" height="1185" as="geometry" />
        </mxCell>
        <mxCell id="5zJq9rHpQnvoExwED2j1-156" value="" style="rounded=0;whiteSpace=wrap;html=1;fillColor=none;dashed=1;" vertex="1" parent="1">
          <mxGeometry x="130" y="245" width="880" height="792" as="geometry" />
        </mxCell>
        <mxCell id="5zJq9rHpQnvoExwED2j1-157" value="" style="rounded=0;whiteSpace=wrap;html=1;fillColor=none;dashed=1;" vertex="1" parent="1">
          <mxGeometry x="73" y="1082" width="940" height="816" as="geometry" />
        </mxCell>
        <mxCell id="5zJq9rHpQnvoExwED2j1-158" value="" style="rounded=0;whiteSpace=wrap;html=1;fillColor=none;dashed=1;" vertex="1" parent="1">
          <mxGeometry x="1422" y="1174" width="396" height="467" as="geometry" />
        </mxCell>
        <mxCell id="5zJq9rHpQnvoExwED2j1-159" value="&lt;b style=&quot;font-size: 13px;&quot;&gt;User service&lt;/b&gt;" style="text;html=1;strokeColor=none;fillColor=none;align=center;verticalAlign=middle;whiteSpace=wrap;rounded=0;fontSize=13;" vertex="1" parent="1">
          <mxGeometry x="525" y="245" width="90" height="30" as="geometry" />
        </mxCell>
        <mxCell id="5zJq9rHpQnvoExwED2j1-160" value="&lt;b style=&quot;font-size: 13px;&quot;&gt;Course service&lt;/b&gt;" style="text;html=1;strokeColor=none;fillColor=none;align=center;verticalAlign=middle;whiteSpace=wrap;rounded=0;fontSize=13;" vertex="1" parent="1">
          <mxGeometry x="1565" y="-74" width="100" height="30" as="geometry" />
        </mxCell>
        <mxCell id="5zJq9rHpQnvoExwED2j1-161" value="&lt;b style=&quot;font-size: 13px;&quot;&gt;Test service&lt;/b&gt;" style="text;html=1;strokeColor=none;fillColor=none;align=center;verticalAlign=middle;whiteSpace=wrap;rounded=0;fontSize=13;" vertex="1" parent="1">
          <mxGeometry x="520" y="1082" width="90" height="30" as="geometry" />
        </mxCell>
        <mxCell id="5zJq9rHpQnvoExwED2j1-162" value="&lt;b style=&quot;font-size: 13px;&quot;&gt;Feedback service&lt;/b&gt;" style="text;html=1;strokeColor=none;fillColor=none;align=center;verticalAlign=middle;whiteSpace=wrap;rounded=0;fontSize=13;" vertex="1" parent="1">
          <mxGeometry x="1568" y="1174" width="120" height="30" as="geometry" />
        </mxCell>
        <mxCell id="5zJq9rHpQnvoExwED2j1-166" value="" style="endArrow=diamondThin;endFill=1;endSize=24;html=1;rounded=0;entryX=0.478;entryY=1.038;entryDx=0;entryDy=0;entryPerimeter=0;exitX=0.5;exitY=0;exitDx=0;exitDy=0;" edge="1" parent="1" source="5zJq9rHpQnvoExwED2j1-264" target="5zJq9rHpQnvoExwED2j1-263">
          <mxGeometry width="160" relative="1" as="geometry">
            <mxPoint x="1610.5" y="537" as="sourcePoint" />
            <mxPoint x="1610.5" y="483" as="targetPoint" />
          </mxGeometry>
        </mxCell>
        <mxCell id="5zJq9rHpQnvoExwED2j1-167" value="" style="endArrow=diamondThin;endFill=1;endSize=24;html=1;rounded=0;exitX=0.488;exitY=0.007;exitDx=0;exitDy=0;entryX=0.488;entryY=1.016;entryDx=0;entryDy=0;exitPerimeter=0;entryPerimeter=0;" edge="1" parent="1" source="5zJq9rHpQnvoExwED2j1-274" target="5zJq9rHpQnvoExwED2j1-273">
          <mxGeometry width="160" relative="1" as="geometry">
            <mxPoint x="1613.0137499999996" y="859.56" as="sourcePoint" />
            <mxPoint x="1612.8699999999997" y="779.002" as="targetPoint" />
          </mxGeometry>
        </mxCell>
        <mxCell id="5zJq9rHpQnvoExwED2j1-168" value="" style="endArrow=block;dashed=1;endFill=0;endSize=12;html=1;rounded=0;exitX=0.5;exitY=0;exitDx=0;exitDy=0;entryX=0.474;entryY=1.135;entryDx=0;entryDy=0;entryPerimeter=0;" edge="1" parent="1" source="5zJq9rHpQnvoExwED2j1-190" target="5zJq9rHpQnvoExwED2j1-296">
          <mxGeometry width="160" relative="1" as="geometry">
            <mxPoint x="350" y="818" as="sourcePoint" />
            <mxPoint x="590.1199999999994" y="668.9099999999999" as="targetPoint" />
            <Array as="points">
              <mxPoint x="350" y="774" />
              <mxPoint x="590" y="774" />
            </Array>
          </mxGeometry>
        </mxCell>
        <mxCell id="5zJq9rHpQnvoExwED2j1-169" value="" style="endArrow=none;dashed=1;endFill=0;endSize=12;html=1;rounded=0;entryX=0.526;entryY=0.001;entryDx=0;entryDy=0;entryPerimeter=0;" edge="1" parent="1" target="5zJq9rHpQnvoExwED2j1-183">
          <mxGeometry width="160" relative="1" as="geometry">
            <mxPoint x="590" y="774" as="sourcePoint" />
            <mxPoint x="760" y="814" as="targetPoint" />
            <Array as="points">
              <mxPoint x="720" y="774" />
              <mxPoint x="790" y="774" />
            </Array>
          </mxGeometry>
        </mxCell>
        <mxCell id="5zJq9rHpQnvoExwED2j1-170" value="" style="endArrow=classic;html=1;rounded=0;exitX=1;exitY=0.189;exitDx=0;exitDy=0;exitPerimeter=0;entryX=0;entryY=0.5;entryDx=0;entryDy=0;" edge="1" parent="1" target="5zJq9rHpQnvoExwED2j1-172">
          <mxGeometry width="50" height="50" relative="1" as="geometry">
            <mxPoint x="790" y="507.914" as="sourcePoint" />
            <mxPoint x="958" y="534" as="targetPoint" />
          </mxGeometry>
        </mxCell>
        <mxCell id="5zJq9rHpQnvoExwED2j1-171" value="" style="endArrow=diamondThin;endFill=1;endSize=24;html=1;rounded=0;entryX=1;entryY=0.5;entryDx=0;entryDy=0;exitX=0;exitY=0.654;exitDx=0;exitDy=0;exitPerimeter=0;" edge="1" parent="1" source="5zJq9rHpQnvoExwED2j1-214" target="5zJq9rHpQnvoExwED2j1-197">
          <mxGeometry width="160" relative="1" as="geometry">
            <mxPoint x="644" y="1378.5" as="sourcePoint" />
            <mxPoint x="579" y="1378.5" as="targetPoint" />
          </mxGeometry>
        </mxCell>
        <mxCell id="5zJq9rHpQnvoExwED2j1-172" value="&lt;b&gt;Gateway&lt;/b&gt;" style="rounded=0;whiteSpace=wrap;html=1;" vertex="1" parent="1">
          <mxGeometry x="1060" y="480" width="101" height="56" as="geometry" />
        </mxCell>
        <mxCell id="5zJq9rHpQnvoExwED2j1-176" value="&lt;b&gt;Gateway&lt;/b&gt;" style="rounded=0;whiteSpace=wrap;html=1;" vertex="1" parent="1">
          <mxGeometry x="1900" y="150" width="119" height="56" as="geometry" />
        </mxCell>
        <mxCell id="5zJq9rHpQnvoExwED2j1-179" value="" style="endArrow=none;html=1;rounded=0;entryX=0;entryY=0.5;entryDx=0;entryDy=0;exitX=1;exitY=0.5;exitDx=0;exitDy=0;startArrow=classic;startFill=1;endFill=0;" edge="1" parent="1" source="5zJq9rHpQnvoExwED2j1-180" target="5zJq9rHpQnvoExwED2j1-197">
          <mxGeometry width="50" height="50" relative="1" as="geometry">
            <mxPoint x="178" y="1367.5" as="sourcePoint" />
            <mxPoint x="284" y="1367.5" as="targetPoint" />
          </mxGeometry>
        </mxCell>
        <mxCell id="5zJq9rHpQnvoExwED2j1-180" value="&lt;b&gt;Gateway&lt;/b&gt;" style="rounded=0;whiteSpace=wrap;html=1;" vertex="1" parent="1">
          <mxGeometry x="-93" y="1351.5" width="101" height="56" as="geometry" />
        </mxCell>
        <mxCell id="5zJq9rHpQnvoExwED2j1-183" value="&amp;lt;&amp;lt;Entity&amp;gt;&amp;gt; Organizer" style="swimlane;fontStyle=1;align=center;verticalAlign=top;childLayout=stackLayout;horizontal=1;startSize=26;horizontalStack=0;resizeParent=1;resizeParentMax=0;resizeLast=0;collapsible=1;marginBottom=0;whiteSpace=wrap;html=1;" vertex="1" parent="1">
          <mxGeometry x="585" y="830" width="390" height="164" as="geometry" />
        </mxCell>
        <mxCell id="5zJq9rHpQnvoExwED2j1-184" value="+&amp;nbsp; companyName: String" style="text;strokeColor=none;fillColor=none;align=left;verticalAlign=top;spacingLeft=4;spacingRight=4;overflow=hidden;rotatable=0;points=[[0,0.5],[1,0.5]];portConstraint=eastwest;whiteSpace=wrap;html=1;" vertex="1" parent="5zJq9rHpQnvoExwED2j1-183">
          <mxGeometry y="26" width="390" height="26" as="geometry" />
        </mxCell>
        <mxCell id="5zJq9rHpQnvoExwED2j1-185" value="" style="line;strokeWidth=1;fillColor=none;align=left;verticalAlign=middle;spacingTop=-1;spacingLeft=3;spacingRight=3;rotatable=0;labelPosition=right;points=[];portConstraint=eastwest;strokeColor=inherit;" vertex="1" parent="5zJq9rHpQnvoExwED2j1-183">
          <mxGeometry y="52" width="390" height="8" as="geometry" />
        </mxCell>
        <mxCell id="5zJq9rHpQnvoExwED2j1-186" value="+ organizerRegister (username: String, email: String, password: String)" style="text;strokeColor=none;fillColor=none;align=left;verticalAlign=top;spacingLeft=4;spacingRight=4;overflow=hidden;rotatable=0;points=[[0,0.5],[1,0.5]];portConstraint=eastwest;whiteSpace=wrap;html=1;" vertex="1" parent="5zJq9rHpQnvoExwED2j1-183">
          <mxGeometry y="60" width="390" height="26" as="geometry" />
        </mxCell>
        <mxCell id="5zJq9rHpQnvoExwED2j1-187" value="+ changeCompanyName (organizerId: Integer, companyName: String)" style="text;strokeColor=none;fillColor=none;align=left;verticalAlign=top;spacingLeft=4;spacingRight=4;overflow=hidden;rotatable=0;points=[[0,0.5],[1,0.5]];portConstraint=eastwest;whiteSpace=wrap;html=1;" vertex="1" parent="5zJq9rHpQnvoExwED2j1-183">
          <mxGeometry y="86" width="390" height="26" as="geometry" />
        </mxCell>
        <mxCell id="5zJq9rHpQnvoExwED2j1-188" value="+ getAllOrganizers ()" style="text;strokeColor=none;fillColor=none;align=left;verticalAlign=top;spacingLeft=4;spacingRight=4;overflow=hidden;rotatable=0;points=[[0,0.5],[1,0.5]];portConstraint=eastwest;whiteSpace=wrap;html=1;" vertex="1" parent="5zJq9rHpQnvoExwED2j1-183">
          <mxGeometry y="112" width="390" height="26" as="geometry" />
        </mxCell>
        <mxCell id="5zJq9rHpQnvoExwED2j1-189" value="+ getOrganizer (organizerId: Integer)" style="text;strokeColor=none;fillColor=none;align=left;verticalAlign=top;spacingLeft=4;spacingRight=4;overflow=hidden;rotatable=0;points=[[0,0.5],[1,0.5]];portConstraint=eastwest;whiteSpace=wrap;html=1;" vertex="1" parent="5zJq9rHpQnvoExwED2j1-183">
          <mxGeometry y="138" width="390" height="26" as="geometry" />
        </mxCell>
        <mxCell id="5zJq9rHpQnvoExwED2j1-190" value="&amp;lt;&amp;lt;Entity&amp;gt;&amp;gt; Student" style="swimlane;fontStyle=1;align=center;verticalAlign=top;childLayout=stackLayout;horizontal=1;startSize=26;horizontalStack=0;resizeParent=1;resizeParentMax=0;resizeLast=0;collapsible=1;marginBottom=0;whiteSpace=wrap;html=1;" vertex="1" parent="1">
          <mxGeometry x="150" y="830" width="400" height="164" as="geometry" />
        </mxCell>
        <mxCell id="5zJq9rHpQnvoExwED2j1-191" value="+ studentFullName: String" style="text;strokeColor=none;fillColor=none;align=left;verticalAlign=top;spacingLeft=4;spacingRight=4;overflow=hidden;rotatable=0;points=[[0,0.5],[1,0.5]];portConstraint=eastwest;whiteSpace=wrap;html=1;" vertex="1" parent="5zJq9rHpQnvoExwED2j1-190">
          <mxGeometry y="26" width="400" height="26" as="geometry" />
        </mxCell>
        <mxCell id="5zJq9rHpQnvoExwED2j1-192" value="" style="line;strokeWidth=1;fillColor=none;align=left;verticalAlign=middle;spacingTop=-1;spacingLeft=3;spacingRight=3;rotatable=0;labelPosition=right;points=[];portConstraint=eastwest;strokeColor=inherit;" vertex="1" parent="5zJq9rHpQnvoExwED2j1-190">
          <mxGeometry y="52" width="400" height="8" as="geometry" />
        </mxCell>
        <mxCell id="5zJq9rHpQnvoExwED2j1-193" value="+ studentRegister (username: String, email: String, password: String)" style="text;strokeColor=none;fillColor=none;align=left;verticalAlign=top;spacingLeft=4;spacingRight=4;overflow=hidden;rotatable=0;points=[[0,0.5],[1,0.5]];portConstraint=eastwest;whiteSpace=wrap;html=1;" vertex="1" parent="5zJq9rHpQnvoExwED2j1-190">
          <mxGeometry y="60" width="400" height="26" as="geometry" />
        </mxCell>
        <mxCell id="5zJq9rHpQnvoExwED2j1-194" value="+ changeStudentFullName (studentId: Integer, studentFullName: String)" style="text;strokeColor=none;fillColor=none;align=left;verticalAlign=top;spacingLeft=4;spacingRight=4;overflow=hidden;rotatable=0;points=[[0,0.5],[1,0.5]];portConstraint=eastwest;whiteSpace=wrap;html=1;" vertex="1" parent="5zJq9rHpQnvoExwED2j1-190">
          <mxGeometry y="86" width="400" height="26" as="geometry" />
        </mxCell>
        <mxCell id="5zJq9rHpQnvoExwED2j1-195" value="+ getAllStudents ()" style="text;strokeColor=none;fillColor=none;align=left;verticalAlign=top;spacingLeft=4;spacingRight=4;overflow=hidden;rotatable=0;points=[[0,0.5],[1,0.5]];portConstraint=eastwest;whiteSpace=wrap;html=1;" vertex="1" parent="5zJq9rHpQnvoExwED2j1-190">
          <mxGeometry y="112" width="400" height="26" as="geometry" />
        </mxCell>
        <mxCell id="5zJq9rHpQnvoExwED2j1-196" value="+ getStudent (studentId: Integer)" style="text;strokeColor=none;fillColor=none;align=left;verticalAlign=top;spacingLeft=4;spacingRight=4;overflow=hidden;rotatable=0;points=[[0,0.5],[1,0.5]];portConstraint=eastwest;whiteSpace=wrap;html=1;" vertex="1" parent="5zJq9rHpQnvoExwED2j1-190">
          <mxGeometry y="138" width="400" height="26" as="geometry" />
        </mxCell>
        <mxCell id="5zJq9rHpQnvoExwED2j1-197" value="&amp;lt;&amp;lt;root&amp;gt;&amp;gt; Test" style="swimlane;fontStyle=1;align=center;verticalAlign=top;childLayout=stackLayout;horizontal=1;startSize=26;horizontalStack=0;resizeParent=1;resizeParentMax=0;resizeLast=0;collapsible=1;marginBottom=0;whiteSpace=wrap;html=1;" vertex="1" parent="1">
          <mxGeometry x="249" y="1141.5" width="330" height="476" as="geometry" />
        </mxCell>
        <mxCell id="5zJq9rHpQnvoExwED2j1-198" value="+ id: Integer" style="text;strokeColor=none;fillColor=none;align=left;verticalAlign=top;spacingLeft=4;spacingRight=4;overflow=hidden;rotatable=0;points=[[0,0.5],[1,0.5]];portConstraint=eastwest;whiteSpace=wrap;html=1;" vertex="1" parent="5zJq9rHpQnvoExwED2j1-197">
          <mxGeometry y="26" width="330" height="26" as="geometry" />
        </mxCell>
        <mxCell id="5zJq9rHpQnvoExwED2j1-199" value="+ name: String" style="text;strokeColor=none;fillColor=none;align=left;verticalAlign=top;spacingLeft=4;spacingRight=4;overflow=hidden;rotatable=0;points=[[0,0.5],[1,0.5]];portConstraint=eastwest;whiteSpace=wrap;html=1;" vertex="1" parent="5zJq9rHpQnvoExwED2j1-197">
          <mxGeometry y="52" width="330" height="26" as="geometry" />
        </mxCell>
        <mxCell id="5zJq9rHpQnvoExwED2j1-200" value="+ questions: Question [1..*]&amp;nbsp;{ordered,unique}" style="text;strokeColor=none;fillColor=none;align=left;verticalAlign=top;spacingLeft=4;spacingRight=4;overflow=hidden;rotatable=0;points=[[0,0.5],[1,0.5]];portConstraint=eastwest;whiteSpace=wrap;html=1;" vertex="1" parent="5zJq9rHpQnvoExwED2j1-197">
          <mxGeometry y="78" width="330" height="26" as="geometry" />
        </mxCell>
        <mxCell id="5zJq9rHpQnvoExwED2j1-201" value="+ timeToComplete: DateTime" style="text;strokeColor=none;fillColor=none;align=left;verticalAlign=top;spacingLeft=4;spacingRight=4;overflow=hidden;rotatable=0;points=[[0,0.5],[1,0.5]];portConstraint=eastwest;whiteSpace=wrap;html=1;" vertex="1" parent="5zJq9rHpQnvoExwED2j1-197">
          <mxGeometry y="104" width="330" height="26" as="geometry" />
        </mxCell>
        <mxCell id="5zJq9rHpQnvoExwED2j1-202" value="+ testResults: TestResult [0..*]&amp;nbsp;{ordered,unique}" style="text;strokeColor=none;fillColor=none;align=left;verticalAlign=top;spacingLeft=4;spacingRight=4;overflow=hidden;rotatable=0;points=[[0,0.5],[1,0.5]];portConstraint=eastwest;whiteSpace=wrap;html=1;" vertex="1" parent="5zJq9rHpQnvoExwED2j1-197">
          <mxGeometry y="130" width="330" height="26" as="geometry" />
        </mxCell>
        <mxCell id="MXllI1PCTG8mrCwp9gsU-151" value="+ topics: Integer [0..*]&amp;nbsp;{ordered,unique}" style="text;strokeColor=none;fillColor=none;align=left;verticalAlign=top;spacingLeft=4;spacingRight=4;overflow=hidden;rotatable=0;points=[[0,0.5],[1,0.5]];portConstraint=eastwest;whiteSpace=wrap;html=1;" vertex="1" parent="5zJq9rHpQnvoExwED2j1-197">
          <mxGeometry y="156" width="330" height="26" as="geometry" />
        </mxCell>
        <mxCell id="5zJq9rHpQnvoExwED2j1-203" value="" style="line;strokeWidth=1;fillColor=none;align=left;verticalAlign=middle;spacingTop=-1;spacingLeft=3;spacingRight=3;rotatable=0;labelPosition=right;points=[];portConstraint=eastwest;strokeColor=inherit;" vertex="1" parent="5zJq9rHpQnvoExwED2j1-197">
          <mxGeometry y="182" width="330" height="8" as="geometry" />
        </mxCell>
        <mxCell id="5zJq9rHpQnvoExwED2j1-204" value="+ createTest (topicId: Integer, test: Test)" style="text;strokeColor=none;fillColor=none;align=left;verticalAlign=top;spacingLeft=4;spacingRight=4;overflow=hidden;rotatable=0;points=[[0,0.5],[1,0.5]];portConstraint=eastwest;whiteSpace=wrap;html=1;" vertex="1" parent="5zJq9rHpQnvoExwED2j1-197">
          <mxGeometry y="190" width="330" height="26" as="geometry" />
        </mxCell>
        <mxCell id="jJe8YVPjVP_VvDU_hXJ1-5" value="+ getAllTestsFromTopic (topicId: Integer)" style="text;strokeColor=none;fillColor=none;align=left;verticalAlign=top;spacingLeft=4;spacingRight=4;overflow=hidden;rotatable=0;points=[[0,0.5],[1,0.5]];portConstraint=eastwest;whiteSpace=wrap;html=1;" vertex="1" parent="5zJq9rHpQnvoExwED2j1-197">
          <mxGeometry y="216" width="330" height="26" as="geometry" />
        </mxCell>
        <mxCell id="jJe8YVPjVP_VvDU_hXJ1-6" value="+ getTest (testId: Integer)" style="text;strokeColor=none;fillColor=none;align=left;verticalAlign=top;spacingLeft=4;spacingRight=4;overflow=hidden;rotatable=0;points=[[0,0.5],[1,0.5]];portConstraint=eastwest;whiteSpace=wrap;html=1;" vertex="1" parent="5zJq9rHpQnvoExwED2j1-197">
          <mxGeometry y="242" width="330" height="26" as="geometry" />
        </mxCell>
        <mxCell id="jJe8YVPjVP_VvDU_hXJ1-20" value="+ editTest (testId: Integer, test: Test)" style="text;strokeColor=none;fillColor=none;align=left;verticalAlign=top;spacingLeft=4;spacingRight=4;overflow=hidden;rotatable=0;points=[[0,0.5],[1,0.5]];portConstraint=eastwest;whiteSpace=wrap;html=1;" vertex="1" parent="5zJq9rHpQnvoExwED2j1-197">
          <mxGeometry y="268" width="330" height="26" as="geometry" />
        </mxCell>
        <mxCell id="5zJq9rHpQnvoExwED2j1-205" value="+ deleteTest (testId: Integer)" style="text;strokeColor=none;fillColor=none;align=left;verticalAlign=top;spacingLeft=4;spacingRight=4;overflow=hidden;rotatable=0;points=[[0,0.5],[1,0.5]];portConstraint=eastwest;whiteSpace=wrap;html=1;" vertex="1" parent="5zJq9rHpQnvoExwED2j1-197">
          <mxGeometry y="294" width="330" height="26" as="geometry" />
        </mxCell>
        <mxCell id="5zJq9rHpQnvoExwED2j1-206" value="+ createTestResults(testId: Integer, testResults: TestResult)" style="text;strokeColor=none;fillColor=none;align=left;verticalAlign=top;spacingLeft=4;spacingRight=4;overflow=hidden;rotatable=0;points=[[0,0.5],[1,0.5]];portConstraint=eastwest;whiteSpace=wrap;html=1;" vertex="1" parent="5zJq9rHpQnvoExwED2j1-197">
          <mxGeometry y="320" width="330" height="26" as="geometry" />
        </mxCell>
        <mxCell id="5zJq9rHpQnvoExwED2j1-207" value="+ deleteTestResult(testId: Integer, userResultId: Integer)" style="text;strokeColor=none;fillColor=none;align=left;verticalAlign=top;spacingLeft=4;spacingRight=4;overflow=hidden;rotatable=0;points=[[0,0.5],[1,0.5]];portConstraint=eastwest;whiteSpace=wrap;html=1;" vertex="1" parent="5zJq9rHpQnvoExwED2j1-197">
          <mxGeometry y="346" width="330" height="26" as="geometry" />
        </mxCell>
        <mxCell id="5zJq9rHpQnvoExwED2j1-208" value="+ createQuestion(testId: Integer, question: Question)" style="text;strokeColor=none;fillColor=none;align=left;verticalAlign=top;spacingLeft=4;spacingRight=4;overflow=hidden;rotatable=0;points=[[0,0.5],[1,0.5]];portConstraint=eastwest;whiteSpace=wrap;html=1;" vertex="1" parent="5zJq9rHpQnvoExwED2j1-197">
          <mxGeometry y="372" width="330" height="26" as="geometry" />
        </mxCell>
        <mxCell id="5zJq9rHpQnvoExwED2j1-209" value="+ deleteQuestion(questionId: Integer)" style="text;strokeColor=none;fillColor=none;align=left;verticalAlign=top;spacingLeft=4;spacingRight=4;overflow=hidden;rotatable=0;points=[[0,0.5],[1,0.5]];portConstraint=eastwest;whiteSpace=wrap;html=1;" vertex="1" parent="5zJq9rHpQnvoExwED2j1-197">
          <mxGeometry y="398" width="330" height="26" as="geometry" />
        </mxCell>
        <mxCell id="jJe8YVPjVP_VvDU_hXJ1-17" value="+ createAnswer(questionId: Integer, answer: Answer)" style="text;strokeColor=none;fillColor=none;align=left;verticalAlign=top;spacingLeft=4;spacingRight=4;overflow=hidden;rotatable=0;points=[[0,0.5],[1,0.5]];portConstraint=eastwest;whiteSpace=wrap;html=1;" vertex="1" parent="5zJq9rHpQnvoExwED2j1-197">
          <mxGeometry y="424" width="330" height="26" as="geometry" />
        </mxCell>
        <mxCell id="jJe8YVPjVP_VvDU_hXJ1-18" value="+ deleteAnswer(answerId: Integer)" style="text;strokeColor=none;fillColor=none;align=left;verticalAlign=top;spacingLeft=4;spacingRight=4;overflow=hidden;rotatable=0;points=[[0,0.5],[1,0.5]];portConstraint=eastwest;whiteSpace=wrap;html=1;" vertex="1" parent="5zJq9rHpQnvoExwED2j1-197">
          <mxGeometry y="450" width="330" height="26" as="geometry" />
        </mxCell>
        <mxCell id="5zJq9rHpQnvoExwED2j1-210" value="&amp;lt;&amp;lt;Entity&amp;gt;&amp;gt; Question" style="swimlane;fontStyle=1;align=center;verticalAlign=top;childLayout=stackLayout;horizontal=1;startSize=26;horizontalStack=0;resizeParent=1;resizeParentMax=0;resizeLast=0;collapsible=1;marginBottom=0;whiteSpace=wrap;html=1;" vertex="1" parent="1">
          <mxGeometry x="644" y="1258.5" width="320" height="242" as="geometry" />
        </mxCell>
        <mxCell id="5zJq9rHpQnvoExwED2j1-211" value="+ id: Integer" style="text;strokeColor=none;fillColor=none;align=left;verticalAlign=top;spacingLeft=4;spacingRight=4;overflow=hidden;rotatable=0;points=[[0,0.5],[1,0.5]];portConstraint=eastwest;whiteSpace=wrap;html=1;" vertex="1" parent="5zJq9rHpQnvoExwED2j1-210">
          <mxGeometry y="26" width="320" height="26" as="geometry" />
        </mxCell>
        <mxCell id="5zJq9rHpQnvoExwED2j1-212" value="+ questionText: String" style="text;strokeColor=none;fillColor=none;align=left;verticalAlign=top;spacingLeft=4;spacingRight=4;overflow=hidden;rotatable=0;points=[[0,0.5],[1,0.5]];portConstraint=eastwest;whiteSpace=wrap;html=1;" vertex="1" parent="5zJq9rHpQnvoExwED2j1-210">
          <mxGeometry y="52" width="320" height="26" as="geometry" />
        </mxCell>
        <mxCell id="5zJq9rHpQnvoExwED2j1-213" value="+ questionPoints: Float" style="text;strokeColor=none;fillColor=none;align=left;verticalAlign=top;spacingLeft=4;spacingRight=4;overflow=hidden;rotatable=0;points=[[0,0.5],[1,0.5]];portConstraint=eastwest;whiteSpace=wrap;html=1;" vertex="1" parent="5zJq9rHpQnvoExwED2j1-210">
          <mxGeometry y="78" width="320" height="26" as="geometry" />
        </mxCell>
        <mxCell id="5zJq9rHpQnvoExwED2j1-214" value="+ answers: String [1..*]&amp;nbsp;{ordered,unique}" style="text;strokeColor=none;fillColor=none;align=left;verticalAlign=top;spacingLeft=4;spacingRight=4;overflow=hidden;rotatable=0;points=[[0,0.5],[1,0.5]];portConstraint=eastwest;whiteSpace=wrap;html=1;" vertex="1" parent="5zJq9rHpQnvoExwED2j1-210">
          <mxGeometry y="104" width="320" height="26" as="geometry" />
        </mxCell>
        <mxCell id="5zJq9rHpQnvoExwED2j1-215" value="+ rightAnswer: Integer" style="text;strokeColor=none;fillColor=none;align=left;verticalAlign=top;spacingLeft=4;spacingRight=4;overflow=hidden;rotatable=0;points=[[0,0.5],[1,0.5]];portConstraint=eastwest;whiteSpace=wrap;html=1;" vertex="1" parent="5zJq9rHpQnvoExwED2j1-210">
          <mxGeometry y="130" width="320" height="26" as="geometry" />
        </mxCell>
        <mxCell id="5zJq9rHpQnvoExwED2j1-216" value="" style="line;strokeWidth=1;fillColor=none;align=left;verticalAlign=middle;spacingTop=-1;spacingLeft=3;spacingRight=3;rotatable=0;labelPosition=right;points=[];portConstraint=eastwest;strokeColor=inherit;" vertex="1" parent="5zJq9rHpQnvoExwED2j1-210">
          <mxGeometry y="156" width="320" height="8" as="geometry" />
        </mxCell>
        <mxCell id="5zJq9rHpQnvoExwED2j1-217" value="+ getAllQuestion(testId: Integer)" style="text;strokeColor=none;fillColor=none;align=left;verticalAlign=top;spacingLeft=4;spacingRight=4;overflow=hidden;rotatable=0;points=[[0,0.5],[1,0.5]];portConstraint=eastwest;whiteSpace=wrap;html=1;" vertex="1" parent="5zJq9rHpQnvoExwED2j1-210">
          <mxGeometry y="164" width="320" height="26" as="geometry" />
        </mxCell>
        <mxCell id="5zJq9rHpQnvoExwED2j1-218" value="+ getQuestion(questionId: Integer)" style="text;strokeColor=none;fillColor=none;align=left;verticalAlign=top;spacingLeft=4;spacingRight=4;overflow=hidden;rotatable=0;points=[[0,0.5],[1,0.5]];portConstraint=eastwest;whiteSpace=wrap;html=1;" vertex="1" parent="5zJq9rHpQnvoExwED2j1-210">
          <mxGeometry y="190" width="320" height="26" as="geometry" />
        </mxCell>
        <mxCell id="5zJq9rHpQnvoExwED2j1-219" value="+ editQuestion(questionId: Integer, question: Question)" style="text;strokeColor=none;fillColor=none;align=left;verticalAlign=top;spacingLeft=4;spacingRight=4;overflow=hidden;rotatable=0;points=[[0,0.5],[1,0.5]];portConstraint=eastwest;whiteSpace=wrap;html=1;" vertex="1" parent="5zJq9rHpQnvoExwED2j1-210">
          <mxGeometry y="216" width="320" height="26" as="geometry" />
        </mxCell>
        <mxCell id="5zJq9rHpQnvoExwED2j1-220" value="&amp;lt;&amp;lt;Entity&amp;gt;&amp;gt; TestResult" style="swimlane;fontStyle=1;align=center;verticalAlign=top;childLayout=stackLayout;horizontal=1;startSize=26;horizontalStack=0;resizeParent=1;resizeParentMax=0;resizeLast=0;collapsible=1;marginBottom=0;whiteSpace=wrap;html=1;" vertex="1" parent="1">
          <mxGeometry x="86" y="1640" width="438" height="190" as="geometry" />
        </mxCell>
        <mxCell id="5zJq9rHpQnvoExwED2j1-221" value="+ id: Integer" style="text;strokeColor=none;fillColor=none;align=left;verticalAlign=top;spacingLeft=4;spacingRight=4;overflow=hidden;rotatable=0;points=[[0,0.5],[1,0.5]];portConstraint=eastwest;whiteSpace=wrap;html=1;" vertex="1" parent="5zJq9rHpQnvoExwED2j1-220">
          <mxGeometry y="26" width="438" height="26" as="geometry" />
        </mxCell>
        <mxCell id="5zJq9rHpQnvoExwED2j1-222" value="+ userId: String" style="text;strokeColor=none;fillColor=none;align=left;verticalAlign=top;spacingLeft=4;spacingRight=4;overflow=hidden;rotatable=0;points=[[0,0.5],[1,0.5]];portConstraint=eastwest;whiteSpace=wrap;html=1;" vertex="1" parent="5zJq9rHpQnvoExwED2j1-220">
          <mxGeometry y="52" width="438" height="26" as="geometry" />
        </mxCell>
        <mxCell id="5zJq9rHpQnvoExwED2j1-223" value="+ givenAnswer: Answer" style="text;strokeColor=none;fillColor=none;align=left;verticalAlign=top;spacingLeft=4;spacingRight=4;overflow=hidden;rotatable=0;points=[[0,0.5],[1,0.5]];portConstraint=eastwest;whiteSpace=wrap;html=1;" vertex="1" parent="5zJq9rHpQnvoExwED2j1-220">
          <mxGeometry y="78" width="438" height="26" as="geometry" />
        </mxCell>
        <mxCell id="5zJq9rHpQnvoExwED2j1-227" value="" style="line;strokeWidth=1;fillColor=none;align=left;verticalAlign=middle;spacingTop=-1;spacingLeft=3;spacingRight=3;rotatable=0;labelPosition=right;points=[];portConstraint=eastwest;strokeColor=inherit;" vertex="1" parent="5zJq9rHpQnvoExwED2j1-220">
          <mxGeometry y="104" width="438" height="8" as="geometry" />
        </mxCell>
        <mxCell id="5zJq9rHpQnvoExwED2j1-228" value="+ getAllTestResults (testId: Integer)" style="text;strokeColor=none;fillColor=none;align=left;verticalAlign=top;spacingLeft=4;spacingRight=4;overflow=hidden;rotatable=0;points=[[0,0.5],[1,0.5]];portConstraint=eastwest;whiteSpace=wrap;html=1;" vertex="1" parent="5zJq9rHpQnvoExwED2j1-220">
          <mxGeometry y="112" width="438" height="26" as="geometry" />
        </mxCell>
        <mxCell id="5zJq9rHpQnvoExwED2j1-229" value="+ getTestResults (testId: Integer, userResultId: Integer)" style="text;strokeColor=none;fillColor=none;align=left;verticalAlign=top;spacingLeft=4;spacingRight=4;overflow=hidden;rotatable=0;points=[[0,0.5],[1,0.5]];portConstraint=eastwest;whiteSpace=wrap;html=1;" vertex="1" parent="5zJq9rHpQnvoExwED2j1-220">
          <mxGeometry y="138" width="438" height="26" as="geometry" />
        </mxCell>
        <mxCell id="5zJq9rHpQnvoExwED2j1-230" value="+ editTestResults (testId: Integer, userResultId: Integer, testResults: TestResults)" style="text;strokeColor=none;fillColor=none;align=left;verticalAlign=top;spacingLeft=4;spacingRight=4;overflow=hidden;rotatable=0;points=[[0,0.5],[1,0.5]];portConstraint=eastwest;whiteSpace=wrap;html=1;" vertex="1" parent="5zJq9rHpQnvoExwED2j1-220">
          <mxGeometry y="164" width="438" height="26" as="geometry" />
        </mxCell>
        <mxCell id="5zJq9rHpQnvoExwED2j1-231" value="&amp;lt;&amp;lt;root&amp;gt;&amp;gt; Feedback" style="swimlane;fontStyle=1;align=center;verticalAlign=top;childLayout=stackLayout;horizontal=1;startSize=26;horizontalStack=0;resizeParent=1;resizeParentMax=0;resizeLast=0;collapsible=1;marginBottom=0;whiteSpace=wrap;html=1;" vertex="1" parent="1">
          <mxGeometry x="1442" y="1224" width="345.5" height="372" as="geometry" />
        </mxCell>
        <mxCell id="5zJq9rHpQnvoExwED2j1-232" value="+ id: Integer" style="text;strokeColor=none;fillColor=none;align=left;verticalAlign=top;spacingLeft=4;spacingRight=4;overflow=hidden;rotatable=0;points=[[0,0.5],[1,0.5]];portConstraint=eastwest;whiteSpace=wrap;html=1;" vertex="1" parent="5zJq9rHpQnvoExwED2j1-231">
          <mxGeometry y="26" width="345.5" height="26" as="geometry" />
        </mxCell>
        <mxCell id="5zJq9rHpQnvoExwED2j1-233" value="+ courseId: Integer" style="text;strokeColor=none;fillColor=none;align=left;verticalAlign=top;spacingLeft=4;spacingRight=4;overflow=hidden;rotatable=0;points=[[0,0.5],[1,0.5]];portConstraint=eastwest;whiteSpace=wrap;html=1;" vertex="1" parent="5zJq9rHpQnvoExwED2j1-231">
          <mxGeometry y="52" width="345.5" height="26" as="geometry" />
        </mxCell>
        <mxCell id="5zJq9rHpQnvoExwED2j1-234" value="+ studentId: Integer" style="text;strokeColor=none;fillColor=none;align=left;verticalAlign=top;spacingLeft=4;spacingRight=4;overflow=hidden;rotatable=0;points=[[0,0.5],[1,0.5]];portConstraint=eastwest;whiteSpace=wrap;html=1;" vertex="1" parent="5zJq9rHpQnvoExwED2j1-231">
          <mxGeometry y="78" width="345.5" height="26" as="geometry" />
        </mxCell>
        <mxCell id="5zJq9rHpQnvoExwED2j1-235" value="+ feedbackText: String" style="text;strokeColor=none;fillColor=none;align=left;verticalAlign=top;spacingLeft=4;spacingRight=4;overflow=hidden;rotatable=0;points=[[0,0.5],[1,0.5]];portConstraint=eastwest;whiteSpace=wrap;html=1;" vertex="1" parent="5zJq9rHpQnvoExwED2j1-231">
          <mxGeometry y="104" width="345.5" height="26" as="geometry" />
        </mxCell>
        <mxCell id="5zJq9rHpQnvoExwED2j1-236" value="+ rating: Integer" style="text;strokeColor=none;fillColor=none;align=left;verticalAlign=top;spacingLeft=4;spacingRight=4;overflow=hidden;rotatable=0;points=[[0,0.5],[1,0.5]];portConstraint=eastwest;whiteSpace=wrap;html=1;" vertex="1" parent="5zJq9rHpQnvoExwED2j1-231">
          <mxGeometry y="130" width="345.5" height="26" as="geometry" />
        </mxCell>
        <mxCell id="5zJq9rHpQnvoExwED2j1-306" value="+ dateCreated: Timestamp" style="text;strokeColor=none;fillColor=none;align=left;verticalAlign=top;spacingLeft=4;spacingRight=4;overflow=hidden;rotatable=0;points=[[0,0.5],[1,0.5]];portConstraint=eastwest;whiteSpace=wrap;html=1;" vertex="1" parent="5zJq9rHpQnvoExwED2j1-231">
          <mxGeometry y="156" width="345.5" height="26" as="geometry" />
        </mxCell>
        <mxCell id="5zJq9rHpQnvoExwED2j1-305" value="+ dateUpdated: Timestamp" style="text;strokeColor=none;fillColor=none;align=left;verticalAlign=top;spacingLeft=4;spacingRight=4;overflow=hidden;rotatable=0;points=[[0,0.5],[1,0.5]];portConstraint=eastwest;whiteSpace=wrap;html=1;" vertex="1" parent="5zJq9rHpQnvoExwED2j1-231">
          <mxGeometry y="182" width="345.5" height="26" as="geometry" />
        </mxCell>
        <mxCell id="5zJq9rHpQnvoExwED2j1-237" value="" style="line;strokeWidth=1;fillColor=none;align=left;verticalAlign=middle;spacingTop=-1;spacingLeft=3;spacingRight=3;rotatable=0;labelPosition=right;points=[];portConstraint=eastwest;strokeColor=inherit;" vertex="1" parent="5zJq9rHpQnvoExwED2j1-231">
          <mxGeometry y="208" width="345.5" height="8" as="geometry" />
        </mxCell>
        <mxCell id="5zJq9rHpQnvoExwED2j1-238" value="+ createFeedback(feedback: Feedback)" style="text;strokeColor=none;fillColor=none;align=left;verticalAlign=top;spacingLeft=4;spacingRight=4;overflow=hidden;rotatable=0;points=[[0,0.5],[1,0.5]];portConstraint=eastwest;whiteSpace=wrap;html=1;" vertex="1" parent="5zJq9rHpQnvoExwED2j1-231">
          <mxGeometry y="216" width="345.5" height="26" as="geometry" />
        </mxCell>
        <mxCell id="5zJq9rHpQnvoExwED2j1-239" value="+ getAllCourseFeedbacks(courseId: Integer)" style="text;strokeColor=none;fillColor=none;align=left;verticalAlign=top;spacingLeft=4;spacingRight=4;overflow=hidden;rotatable=0;points=[[0,0.5],[1,0.5]];portConstraint=eastwest;whiteSpace=wrap;html=1;" vertex="1" parent="5zJq9rHpQnvoExwED2j1-231">
          <mxGeometry y="242" width="345.5" height="26" as="geometry" />
        </mxCell>
        <mxCell id="5zJq9rHpQnvoExwED2j1-241" value="+ getAllStudentFeedbacks(studentId: Integer)" style="text;strokeColor=none;fillColor=none;align=left;verticalAlign=top;spacingLeft=4;spacingRight=4;overflow=hidden;rotatable=0;points=[[0,0.5],[1,0.5]];portConstraint=eastwest;whiteSpace=wrap;html=1;" vertex="1" parent="5zJq9rHpQnvoExwED2j1-231">
          <mxGeometry y="268" width="345.5" height="26" as="geometry" />
        </mxCell>
        <mxCell id="E07_iCNiqbRwJ9zhVVxS-1" value="+ getFeedback(feedbackId: Integer)" style="text;strokeColor=none;fillColor=none;align=left;verticalAlign=top;spacingLeft=4;spacingRight=4;overflow=hidden;rotatable=0;points=[[0,0.5],[1,0.5]];portConstraint=eastwest;whiteSpace=wrap;html=1;" vertex="1" parent="5zJq9rHpQnvoExwED2j1-231">
          <mxGeometry y="294" width="345.5" height="26" as="geometry" />
        </mxCell>
        <mxCell id="5zJq9rHpQnvoExwED2j1-243" value="+ editFeedback(feedbackId: Integer, feedback: Feedback)" style="text;strokeColor=none;fillColor=none;align=left;verticalAlign=top;spacingLeft=4;spacingRight=4;overflow=hidden;rotatable=0;points=[[0,0.5],[1,0.5]];portConstraint=eastwest;whiteSpace=wrap;html=1;" vertex="1" parent="5zJq9rHpQnvoExwED2j1-231">
          <mxGeometry y="320" width="345.5" height="26" as="geometry" />
        </mxCell>
        <mxCell id="5zJq9rHpQnvoExwED2j1-244" value="+ deleteFeedback(feedbackId: Integer)" style="text;strokeColor=none;fillColor=none;align=left;verticalAlign=top;spacingLeft=4;spacingRight=4;overflow=hidden;rotatable=0;points=[[0,0.5],[1,0.5]];portConstraint=eastwest;whiteSpace=wrap;html=1;" vertex="1" parent="5zJq9rHpQnvoExwED2j1-231">
          <mxGeometry y="346" width="345.5" height="26" as="geometry" />
        </mxCell>
        <mxCell id="5zJq9rHpQnvoExwED2j1-299" style="edgeStyle=orthogonalEdgeStyle;rounded=0;orthogonalLoop=1;jettySize=auto;html=1;entryX=0;entryY=0.5;entryDx=0;entryDy=0;" edge="1" parent="1" target="5zJq9rHpQnvoExwED2j1-176">
          <mxGeometry relative="1" as="geometry">
            <mxPoint x="1807.3800000000006" y="178" as="sourcePoint" />
          </mxGeometry>
        </mxCell>
        <mxCell id="5zJq9rHpQnvoExwED2j1-245" value="&amp;lt;&amp;lt;root&amp;gt;&amp;gt; Course" style="swimlane;fontStyle=1;align=center;verticalAlign=top;childLayout=stackLayout;horizontal=1;startSize=26;horizontalStack=0;resizeParent=1;resizeParentMax=0;resizeLast=0;collapsible=1;marginBottom=0;whiteSpace=wrap;html=1;" vertex="1" parent="1">
          <mxGeometry x="1427.38" y="-34" width="380" height="554" as="geometry" />
        </mxCell>
        <mxCell id="5zJq9rHpQnvoExwED2j1-246" value="+ id: Integer" style="text;strokeColor=none;fillColor=none;align=left;verticalAlign=top;spacingLeft=4;spacingRight=4;overflow=hidden;rotatable=0;points=[[0,0.5],[1,0.5]];portConstraint=eastwest;whiteSpace=wrap;html=1;" vertex="1" parent="5zJq9rHpQnvoExwED2j1-245">
          <mxGeometry y="26" width="380" height="26" as="geometry" />
        </mxCell>
        <mxCell id="5zJq9rHpQnvoExwED2j1-247" value="+ name: String" style="text;strokeColor=none;fillColor=none;align=left;verticalAlign=top;spacingLeft=4;spacingRight=4;overflow=hidden;rotatable=0;points=[[0,0.5],[1,0.5]];portConstraint=eastwest;whiteSpace=wrap;html=1;" vertex="1" parent="5zJq9rHpQnvoExwED2j1-245">
          <mxGeometry y="52" width="380" height="26" as="geometry" />
        </mxCell>
        <mxCell id="5zJq9rHpQnvoExwED2j1-248" value="+ description: String" style="text;strokeColor=none;fillColor=none;align=left;verticalAlign=top;spacingLeft=4;spacingRight=4;overflow=hidden;rotatable=0;points=[[0,0.5],[1,0.5]];portConstraint=eastwest;whiteSpace=wrap;html=1;" vertex="1" parent="5zJq9rHpQnvoExwED2j1-245">
          <mxGeometry y="78" width="380" height="26" as="geometry" />
        </mxCell>
        <mxCell id="5zJq9rHpQnvoExwED2j1-249" value="+ authorId: Integer" style="text;strokeColor=none;fillColor=none;align=left;verticalAlign=top;spacingLeft=4;spacingRight=4;overflow=hidden;rotatable=0;points=[[0,0.5],[1,0.5]];portConstraint=eastwest;whiteSpace=wrap;html=1;" vertex="1" parent="5zJq9rHpQnvoExwED2j1-245">
          <mxGeometry y="104" width="380" height="26" as="geometry" />
        </mxCell>
        <mxCell id="5zJq9rHpQnvoExwED2j1-250" value="+ students: Integer [0..*]&amp;nbsp;{ordered,unique}" style="text;strokeColor=none;fillColor=none;align=left;verticalAlign=top;spacingLeft=4;spacingRight=4;overflow=hidden;rotatable=0;points=[[0,0.5],[1,0.5]];portConstraint=eastwest;whiteSpace=wrap;html=1;" vertex="1" parent="5zJq9rHpQnvoExwED2j1-245">
          <mxGeometry y="130" width="380" height="26" as="geometry" />
        </mxCell>
        <mxCell id="5zJq9rHpQnvoExwED2j1-251" value="+ topics: Topic [1..*]&amp;nbsp;{ordered,unique}" style="text;strokeColor=none;fillColor=none;align=left;verticalAlign=top;spacingLeft=4;spacingRight=4;overflow=hidden;rotatable=0;points=[[0,0.5],[1,0.5]];portConstraint=eastwest;whiteSpace=wrap;html=1;" vertex="1" parent="5zJq9rHpQnvoExwED2j1-245">
          <mxGeometry y="156" width="380" height="26" as="geometry" />
        </mxCell>
        <mxCell id="5zJq9rHpQnvoExwED2j1-253" value="+ isHidden: Boolean" style="text;strokeColor=none;fillColor=none;align=left;verticalAlign=top;spacingLeft=4;spacingRight=4;overflow=hidden;rotatable=0;points=[[0,0.5],[1,0.5]];portConstraint=eastwest;whiteSpace=wrap;html=1;" vertex="1" parent="5zJq9rHpQnvoExwED2j1-245">
          <mxGeometry y="182" width="380" height="26" as="geometry" />
        </mxCell>
        <mxCell id="5zJq9rHpQnvoExwED2j1-254" value="" style="line;strokeWidth=1;fillColor=none;align=left;verticalAlign=middle;spacingTop=-1;spacingLeft=3;spacingRight=3;rotatable=0;labelPosition=right;points=[];portConstraint=eastwest;strokeColor=inherit;" vertex="1" parent="5zJq9rHpQnvoExwED2j1-245">
          <mxGeometry y="208" width="380" height="8" as="geometry" />
        </mxCell>
        <mxCell id="5zJq9rHpQnvoExwED2j1-255" value="+ createCourse (course: Course)" style="text;strokeColor=none;fillColor=none;align=left;verticalAlign=top;spacingLeft=4;spacingRight=4;overflow=hidden;rotatable=0;points=[[0,0.5],[1,0.5]];portConstraint=eastwest;whiteSpace=wrap;html=1;" vertex="1" parent="5zJq9rHpQnvoExwED2j1-245">
          <mxGeometry y="216" width="380" height="26" as="geometry" />
        </mxCell>
        <mxCell id="5zJq9rHpQnvoExwED2j1-256" value="+ getCourse (courseId: Integer)" style="text;strokeColor=none;fillColor=none;align=left;verticalAlign=top;spacingLeft=4;spacingRight=4;overflow=hidden;rotatable=0;points=[[0,0.5],[1,0.5]];portConstraint=eastwest;whiteSpace=wrap;html=1;" vertex="1" parent="5zJq9rHpQnvoExwED2j1-245">
          <mxGeometry y="242" width="380" height="26" as="geometry" />
        </mxCell>
        <mxCell id="5zJq9rHpQnvoExwED2j1-308" value="+ getAllCourses()" style="text;strokeColor=none;fillColor=none;align=left;verticalAlign=top;spacingLeft=4;spacingRight=4;overflow=hidden;rotatable=0;points=[[0,0.5],[1,0.5]];portConstraint=eastwest;whiteSpace=wrap;html=1;" vertex="1" parent="5zJq9rHpQnvoExwED2j1-245">
          <mxGeometry y="268" width="380" height="26" as="geometry" />
        </mxCell>
        <mxCell id="jJe8YVPjVP_VvDU_hXJ1-3" value="+ addCourseSubscription (studentId: Integer, courseId: Integer)" style="text;strokeColor=none;fillColor=none;align=left;verticalAlign=top;spacingLeft=4;spacingRight=4;overflow=hidden;rotatable=0;points=[[0,0.5],[1,0.5]];portConstraint=eastwest;whiteSpace=wrap;html=1;" vertex="1" parent="5zJq9rHpQnvoExwED2j1-245">
          <mxGeometry y="294" width="380" height="26" as="geometry" />
        </mxCell>
        <mxCell id="5zJq9rHpQnvoExwED2j1-309" value="+ getCourseSubscriptions (studentId: Integer)" style="text;strokeColor=none;fillColor=none;align=left;verticalAlign=top;spacingLeft=4;spacingRight=4;overflow=hidden;rotatable=0;points=[[0,0.5],[1,0.5]];portConstraint=eastwest;whiteSpace=wrap;html=1;" vertex="1" parent="5zJq9rHpQnvoExwED2j1-245">
          <mxGeometry y="320" width="380" height="26" as="geometry" />
        </mxCell>
        <mxCell id="jJe8YVPjVP_VvDU_hXJ1-4" value="+ deleteCourseSubscription (courseId: Integer, studentId: Integer)" style="text;strokeColor=none;fillColor=none;align=left;verticalAlign=top;spacingLeft=4;spacingRight=4;overflow=hidden;rotatable=0;points=[[0,0.5],[1,0.5]];portConstraint=eastwest;whiteSpace=wrap;html=1;" vertex="1" parent="5zJq9rHpQnvoExwED2j1-245">
          <mxGeometry y="346" width="380" height="26" as="geometry" />
        </mxCell>
        <mxCell id="5zJq9rHpQnvoExwED2j1-257" value="+ editCourse (courseId: Integer, course: Course)" style="text;strokeColor=none;fillColor=none;align=left;verticalAlign=top;spacingLeft=4;spacingRight=4;overflow=hidden;rotatable=0;points=[[0,0.5],[1,0.5]];portConstraint=eastwest;whiteSpace=wrap;html=1;" vertex="1" parent="5zJq9rHpQnvoExwED2j1-245">
          <mxGeometry y="372" width="380" height="26" as="geometry" />
        </mxCell>
        <mxCell id="5zJq9rHpQnvoExwED2j1-258" value="+ deteleCourse (courseId: Integer)" style="text;strokeColor=none;fillColor=none;align=left;verticalAlign=top;spacingLeft=4;spacingRight=4;overflow=hidden;rotatable=0;points=[[0,0.5],[1,0.5]];portConstraint=eastwest;whiteSpace=wrap;html=1;" vertex="1" parent="5zJq9rHpQnvoExwED2j1-245">
          <mxGeometry y="398" width="380" height="26" as="geometry" />
        </mxCell>
        <mxCell id="5zJq9rHpQnvoExwED2j1-259" value="+ hideCourse (courseId: Integer)" style="text;strokeColor=none;fillColor=none;align=left;verticalAlign=top;spacingLeft=4;spacingRight=4;overflow=hidden;rotatable=0;points=[[0,0.5],[1,0.5]];portConstraint=eastwest;whiteSpace=wrap;html=1;" vertex="1" parent="5zJq9rHpQnvoExwED2j1-245">
          <mxGeometry y="424" width="380" height="26" as="geometry" />
        </mxCell>
        <mxCell id="5zJq9rHpQnvoExwED2j1-260" value="+ createTopic (courseId: Integer, topic: Topic)" style="text;strokeColor=none;fillColor=none;align=left;verticalAlign=top;spacingLeft=4;spacingRight=4;overflow=hidden;rotatable=0;points=[[0,0.5],[1,0.5]];portConstraint=eastwest;whiteSpace=wrap;html=1;" vertex="1" parent="5zJq9rHpQnvoExwED2j1-245">
          <mxGeometry y="450" width="380" height="26" as="geometry" />
        </mxCell>
        <mxCell id="5zJq9rHpQnvoExwED2j1-261" value="+ deleteTopic (topicId: Integer)" style="text;strokeColor=none;fillColor=none;align=left;verticalAlign=top;spacingLeft=4;spacingRight=4;overflow=hidden;rotatable=0;points=[[0,0.5],[1,0.5]];portConstraint=eastwest;whiteSpace=wrap;html=1;" vertex="1" parent="5zJq9rHpQnvoExwED2j1-245">
          <mxGeometry y="476" width="380" height="26" as="geometry" />
        </mxCell>
        <mxCell id="5zJq9rHpQnvoExwED2j1-262" value="+ createLesson (courseId: Integer, lesson: Lesson)" style="text;strokeColor=none;fillColor=none;align=left;verticalAlign=top;spacingLeft=4;spacingRight=4;overflow=hidden;rotatable=0;points=[[0,0.5],[1,0.5]];portConstraint=eastwest;whiteSpace=wrap;html=1;" vertex="1" parent="5zJq9rHpQnvoExwED2j1-245">
          <mxGeometry y="502" width="380" height="26" as="geometry" />
        </mxCell>
        <mxCell id="5zJq9rHpQnvoExwED2j1-263" value="+ deleteLesson (lessonId: Integer)" style="text;strokeColor=none;fillColor=none;align=left;verticalAlign=top;spacingLeft=4;spacingRight=4;overflow=hidden;rotatable=0;points=[[0,0.5],[1,0.5]];portConstraint=eastwest;whiteSpace=wrap;html=1;" vertex="1" parent="5zJq9rHpQnvoExwED2j1-245">
          <mxGeometry y="528" width="380" height="26" as="geometry" />
        </mxCell>
        <mxCell id="5zJq9rHpQnvoExwED2j1-264" value="&amp;lt;&amp;lt;Entity&amp;gt;&amp;gt; Topic" style="swimlane;fontStyle=1;align=center;verticalAlign=top;childLayout=stackLayout;horizontal=1;startSize=26;horizontalStack=0;resizeParent=1;resizeParentMax=0;resizeLast=0;collapsible=1;marginBottom=0;whiteSpace=wrap;html=1;" vertex="1" parent="1">
          <mxGeometry x="1476" y="586" width="268" height="216" as="geometry" />
        </mxCell>
        <mxCell id="5zJq9rHpQnvoExwED2j1-265" value="+ id: Integer" style="text;strokeColor=none;fillColor=none;align=left;verticalAlign=top;spacingLeft=4;spacingRight=4;overflow=hidden;rotatable=0;points=[[0,0.5],[1,0.5]];portConstraint=eastwest;whiteSpace=wrap;html=1;" vertex="1" parent="5zJq9rHpQnvoExwED2j1-264">
          <mxGeometry y="26" width="268" height="26" as="geometry" />
        </mxCell>
        <mxCell id="5zJq9rHpQnvoExwED2j1-266" value="+ name: String" style="text;strokeColor=none;fillColor=none;align=left;verticalAlign=top;spacingLeft=4;spacingRight=4;overflow=hidden;rotatable=0;points=[[0,0.5],[1,0.5]];portConstraint=eastwest;whiteSpace=wrap;html=1;" vertex="1" parent="5zJq9rHpQnvoExwED2j1-264">
          <mxGeometry y="52" width="268" height="26" as="geometry" />
        </mxCell>
        <mxCell id="5zJq9rHpQnvoExwED2j1-267" value="+ description: String" style="text;strokeColor=none;fillColor=none;align=left;verticalAlign=top;spacingLeft=4;spacingRight=4;overflow=hidden;rotatable=0;points=[[0,0.5],[1,0.5]];portConstraint=eastwest;whiteSpace=wrap;html=1;" vertex="1" parent="5zJq9rHpQnvoExwED2j1-264">
          <mxGeometry y="78" width="268" height="26" as="geometry" />
        </mxCell>
        <mxCell id="5zJq9rHpQnvoExwED2j1-268" value="+ lessons: Lesson [1..*]&amp;nbsp;{ordered,unique}" style="text;strokeColor=none;fillColor=none;align=left;verticalAlign=top;spacingLeft=4;spacingRight=4;overflow=hidden;rotatable=0;points=[[0,0.5],[1,0.5]];portConstraint=eastwest;whiteSpace=wrap;html=1;" vertex="1" parent="5zJq9rHpQnvoExwED2j1-264">
          <mxGeometry y="104" width="268" height="26" as="geometry" />
        </mxCell>
        <mxCell id="5zJq9rHpQnvoExwED2j1-270" value="" style="line;strokeWidth=1;fillColor=none;align=left;verticalAlign=middle;spacingTop=-1;spacingLeft=3;spacingRight=3;rotatable=0;labelPosition=right;points=[];portConstraint=eastwest;strokeColor=inherit;" vertex="1" parent="5zJq9rHpQnvoExwED2j1-264">
          <mxGeometry y="130" width="268" height="8" as="geometry" />
        </mxCell>
        <mxCell id="5zJq9rHpQnvoExwED2j1-271" value="+ getAllTopics(courseId: Integer)" style="text;strokeColor=none;fillColor=none;align=left;verticalAlign=top;spacingLeft=4;spacingRight=4;overflow=hidden;rotatable=0;points=[[0,0.5],[1,0.5]];portConstraint=eastwest;whiteSpace=wrap;html=1;" vertex="1" parent="5zJq9rHpQnvoExwED2j1-264">
          <mxGeometry y="138" width="268" height="26" as="geometry" />
        </mxCell>
        <mxCell id="5zJq9rHpQnvoExwED2j1-272" value="+ getTopic(topicId: Integer)" style="text;strokeColor=none;fillColor=none;align=left;verticalAlign=top;spacingLeft=4;spacingRight=4;overflow=hidden;rotatable=0;points=[[0,0.5],[1,0.5]];portConstraint=eastwest;whiteSpace=wrap;html=1;" vertex="1" parent="5zJq9rHpQnvoExwED2j1-264">
          <mxGeometry y="164" width="268" height="26" as="geometry" />
        </mxCell>
        <mxCell id="5zJq9rHpQnvoExwED2j1-273" value="+ editTopic(topicId: Integer,&amp;nbsp;topic: Topic)" style="text;strokeColor=none;fillColor=none;align=left;verticalAlign=top;spacingLeft=4;spacingRight=4;overflow=hidden;rotatable=0;points=[[0,0.5],[1,0.5]];portConstraint=eastwest;whiteSpace=wrap;html=1;" vertex="1" parent="5zJq9rHpQnvoExwED2j1-264">
          <mxGeometry y="190" width="268" height="26" as="geometry" />
        </mxCell>
        <mxCell id="5zJq9rHpQnvoExwED2j1-274" value="&amp;lt;&amp;lt;Entity&amp;gt;&amp;gt; Lesson" style="swimlane;fontStyle=1;align=center;verticalAlign=top;childLayout=stackLayout;horizontal=1;startSize=26;horizontalStack=0;resizeParent=1;resizeParentMax=0;resizeLast=0;collapsible=1;marginBottom=0;whiteSpace=wrap;html=1;" vertex="1" parent="1">
          <mxGeometry x="1478.12" y="876" width="263.75" height="216" as="geometry" />
        </mxCell>
        <mxCell id="5zJq9rHpQnvoExwED2j1-275" value="+ id: Integer" style="text;strokeColor=none;fillColor=none;align=left;verticalAlign=top;spacingLeft=4;spacingRight=4;overflow=hidden;rotatable=0;points=[[0,0.5],[1,0.5]];portConstraint=eastwest;whiteSpace=wrap;html=1;" vertex="1" parent="5zJq9rHpQnvoExwED2j1-274">
          <mxGeometry y="26" width="263.75" height="26" as="geometry" />
        </mxCell>
        <mxCell id="5zJq9rHpQnvoExwED2j1-276" value="+ name: String" style="text;strokeColor=none;fillColor=none;align=left;verticalAlign=top;spacingLeft=4;spacingRight=4;overflow=hidden;rotatable=0;points=[[0,0.5],[1,0.5]];portConstraint=eastwest;whiteSpace=wrap;html=1;" vertex="1" parent="5zJq9rHpQnvoExwED2j1-274">
          <mxGeometry y="52" width="263.75" height="26" as="geometry" />
        </mxCell>
        <mxCell id="5zJq9rHpQnvoExwED2j1-277" value="+ description: String" style="text;strokeColor=none;fillColor=none;align=left;verticalAlign=top;spacingLeft=4;spacingRight=4;overflow=hidden;rotatable=0;points=[[0,0.5],[1,0.5]];portConstraint=eastwest;whiteSpace=wrap;html=1;" vertex="1" parent="5zJq9rHpQnvoExwED2j1-274">
          <mxGeometry y="78" width="263.75" height="26" as="geometry" />
        </mxCell>
        <mxCell id="5zJq9rHpQnvoExwED2j1-278" value="+ materials: String" style="text;strokeColor=none;fillColor=none;align=left;verticalAlign=top;spacingLeft=4;spacingRight=4;overflow=hidden;rotatable=0;points=[[0,0.5],[1,0.5]];portConstraint=eastwest;whiteSpace=wrap;html=1;" vertex="1" parent="5zJq9rHpQnvoExwED2j1-274">
          <mxGeometry y="104" width="263.75" height="26" as="geometry" />
        </mxCell>
        <mxCell id="5zJq9rHpQnvoExwED2j1-279" value="" style="line;strokeWidth=1;fillColor=none;align=left;verticalAlign=middle;spacingTop=-1;spacingLeft=3;spacingRight=3;rotatable=0;labelPosition=right;points=[];portConstraint=eastwest;strokeColor=inherit;" vertex="1" parent="5zJq9rHpQnvoExwED2j1-274">
          <mxGeometry y="130" width="263.75" height="8" as="geometry" />
        </mxCell>
        <mxCell id="5zJq9rHpQnvoExwED2j1-280" value="+ getAllLessons(courseId: Integer)" style="text;strokeColor=none;fillColor=none;align=left;verticalAlign=top;spacingLeft=4;spacingRight=4;overflow=hidden;rotatable=0;points=[[0,0.5],[1,0.5]];portConstraint=eastwest;whiteSpace=wrap;html=1;" vertex="1" parent="5zJq9rHpQnvoExwED2j1-274">
          <mxGeometry y="138" width="263.75" height="26" as="geometry" />
        </mxCell>
        <mxCell id="5zJq9rHpQnvoExwED2j1-281" value="+ getLesson(lessonId: Integer)" style="text;strokeColor=none;fillColor=none;align=left;verticalAlign=top;spacingLeft=4;spacingRight=4;overflow=hidden;rotatable=0;points=[[0,0.5],[1,0.5]];portConstraint=eastwest;whiteSpace=wrap;html=1;" vertex="1" parent="5zJq9rHpQnvoExwED2j1-274">
          <mxGeometry y="164" width="263.75" height="26" as="geometry" />
        </mxCell>
        <mxCell id="5zJq9rHpQnvoExwED2j1-282" value="+ editLesson(lessonId: Integer, lesson: Lesson)" style="text;strokeColor=none;fillColor=none;align=left;verticalAlign=top;spacingLeft=4;spacingRight=4;overflow=hidden;rotatable=0;points=[[0,0.5],[1,0.5]];portConstraint=eastwest;whiteSpace=wrap;html=1;" vertex="1" parent="5zJq9rHpQnvoExwED2j1-274">
          <mxGeometry y="190" width="263.75" height="26" as="geometry" />
        </mxCell>
        <mxCell id="5zJq9rHpQnvoExwED2j1-283" value="&amp;lt;&amp;lt;root&amp;gt;&amp;gt; User {abstract}" style="swimlane;fontStyle=1;align=center;verticalAlign=top;childLayout=stackLayout;horizontal=1;startSize=26;horizontalStack=0;resizeParent=1;resizeParentMax=0;resizeLast=0;collapsible=1;marginBottom=0;whiteSpace=wrap;html=1;" vertex="1" parent="1">
          <mxGeometry x="410" y="313" width="380" height="346" as="geometry" />
        </mxCell>
        <mxCell id="5zJq9rHpQnvoExwED2j1-284" value="+ username: String" style="text;strokeColor=none;fillColor=none;align=left;verticalAlign=top;spacingLeft=4;spacingRight=4;overflow=hidden;rotatable=0;points=[[0,0.5],[1,0.5]];portConstraint=eastwest;whiteSpace=wrap;html=1;" vertex="1" parent="5zJq9rHpQnvoExwED2j1-283">
          <mxGeometry y="26" width="380" height="26" as="geometry" />
        </mxCell>
        <mxCell id="5zJq9rHpQnvoExwED2j1-285" value="+ password: String" style="text;strokeColor=none;fillColor=none;align=left;verticalAlign=top;spacingLeft=4;spacingRight=4;overflow=hidden;rotatable=0;points=[[0,0.5],[1,0.5]];portConstraint=eastwest;whiteSpace=wrap;html=1;" vertex="1" parent="5zJq9rHpQnvoExwED2j1-283">
          <mxGeometry y="52" width="380" height="26" as="geometry" />
        </mxCell>
        <mxCell id="5zJq9rHpQnvoExwED2j1-286" value="+ email: String" style="text;strokeColor=none;fillColor=none;align=left;verticalAlign=top;spacingLeft=4;spacingRight=4;overflow=hidden;rotatable=0;points=[[0,0.5],[1,0.5]];portConstraint=eastwest;whiteSpace=wrap;html=1;" vertex="1" parent="5zJq9rHpQnvoExwED2j1-283">
          <mxGeometry y="78" width="380" height="26" as="geometry" />
        </mxCell>
        <mxCell id="5zJq9rHpQnvoExwED2j1-287" value="+&amp;nbsp;courses: Integer [0..*]&amp;nbsp;{ordered,unique}" style="text;strokeColor=none;fillColor=none;align=left;verticalAlign=top;spacingLeft=4;spacingRight=4;overflow=hidden;rotatable=0;points=[[0,0.5],[1,0.5]];portConstraint=eastwest;whiteSpace=wrap;html=1;" vertex="1" parent="5zJq9rHpQnvoExwED2j1-283">
          <mxGeometry y="104" width="380" height="26" as="geometry" />
        </mxCell>
        <mxCell id="5zJq9rHpQnvoExwED2j1-288" value="" style="line;strokeWidth=1;fillColor=none;align=left;verticalAlign=middle;spacingTop=-1;spacingLeft=3;spacingRight=3;rotatable=0;labelPosition=right;points=[];portConstraint=eastwest;strokeColor=inherit;" vertex="1" parent="5zJq9rHpQnvoExwED2j1-283">
          <mxGeometry y="130" width="380" height="8" as="geometry" />
        </mxCell>
        <mxCell id="5zJq9rHpQnvoExwED2j1-289" value="+ login (username: String, password: String)" style="text;strokeColor=none;fillColor=none;align=left;verticalAlign=top;spacingLeft=4;spacingRight=4;overflow=hidden;rotatable=0;points=[[0,0.5],[1,0.5]];portConstraint=eastwest;whiteSpace=wrap;html=1;" vertex="1" parent="5zJq9rHpQnvoExwED2j1-283">
          <mxGeometry y="138" width="380" height="26" as="geometry" />
        </mxCell>
        <mxCell id="5zJq9rHpQnvoExwED2j1-290" value="+ logout ()" style="text;strokeColor=none;fillColor=none;align=left;verticalAlign=top;spacingLeft=4;spacingRight=4;overflow=hidden;rotatable=0;points=[[0,0.5],[1,0.5]];portConstraint=eastwest;whiteSpace=wrap;html=1;" vertex="1" parent="5zJq9rHpQnvoExwED2j1-283">
          <mxGeometry y="164" width="380" height="26" as="geometry" />
        </mxCell>
        <mxCell id="5zJq9rHpQnvoExwED2j1-292" value="+ recoveryPasswordRequest (email: String)" style="text;strokeColor=none;fillColor=none;align=left;verticalAlign=top;spacingLeft=4;spacingRight=4;overflow=hidden;rotatable=0;points=[[0,0.5],[1,0.5]];portConstraint=eastwest;whiteSpace=wrap;html=1;" vertex="1" parent="5zJq9rHpQnvoExwED2j1-283">
          <mxGeometry y="190" width="380" height="26" as="geometry" />
        </mxCell>
        <mxCell id="5zJq9rHpQnvoExwED2j1-293" value="+ changePassword (recoveryCode: String, newPassword: String)" style="text;strokeColor=none;fillColor=none;align=left;verticalAlign=top;spacingLeft=4;spacingRight=4;overflow=hidden;rotatable=0;points=[[0,0.5],[1,0.5]];portConstraint=eastwest;whiteSpace=wrap;html=1;" vertex="1" parent="5zJq9rHpQnvoExwED2j1-283">
          <mxGeometry y="216" width="380" height="26" as="geometry" />
        </mxCell>
        <mxCell id="5zJq9rHpQnvoExwED2j1-294" value="+ changePassword (previousPassword: String, newPassword: String)" style="text;strokeColor=none;fillColor=none;align=left;verticalAlign=top;spacingLeft=4;spacingRight=4;overflow=hidden;rotatable=0;points=[[0,0.5],[1,0.5]];portConstraint=eastwest;whiteSpace=wrap;html=1;" vertex="1" parent="5zJq9rHpQnvoExwED2j1-283">
          <mxGeometry y="242" width="380" height="26" as="geometry" />
        </mxCell>
        <mxCell id="5zJq9rHpQnvoExwED2j1-295" value="+ addCourseToList (courseId: Integer)" style="text;strokeColor=none;fillColor=none;align=left;verticalAlign=top;spacingLeft=4;spacingRight=4;overflow=hidden;rotatable=0;points=[[0,0.5],[1,0.5]];portConstraint=eastwest;whiteSpace=wrap;html=1;" vertex="1" parent="5zJq9rHpQnvoExwED2j1-283">
          <mxGeometry y="268" width="380" height="26" as="geometry" />
        </mxCell>
        <mxCell id="jJe8YVPjVP_VvDU_hXJ1-1" value="+ deleteCourseFromList (courseId: Integer)" style="text;strokeColor=none;fillColor=none;align=left;verticalAlign=top;spacingLeft=4;spacingRight=4;overflow=hidden;rotatable=0;points=[[0,0.5],[1,0.5]];portConstraint=eastwest;whiteSpace=wrap;html=1;" vertex="1" parent="5zJq9rHpQnvoExwED2j1-283">
          <mxGeometry y="294" width="380" height="26" as="geometry" />
        </mxCell>
        <mxCell id="5zJq9rHpQnvoExwED2j1-296" value="+ getAllCourseSubscribers (courseId: Integer)" style="text;strokeColor=none;fillColor=none;align=left;verticalAlign=top;spacingLeft=4;spacingRight=4;overflow=hidden;rotatable=0;points=[[0,0.5],[1,0.5]];portConstraint=eastwest;whiteSpace=wrap;html=1;" vertex="1" parent="5zJq9rHpQnvoExwED2j1-283">
          <mxGeometry y="320" width="380" height="26" as="geometry" />
        </mxCell>
        <mxCell id="5zJq9rHpQnvoExwED2j1-301" value="&lt;b&gt;Gateway&lt;/b&gt;" style="rounded=0;whiteSpace=wrap;html=1;" vertex="1" parent="1">
          <mxGeometry x="1890.5" y="1356.5" width="119" height="56" as="geometry" />
        </mxCell>
        <mxCell id="5zJq9rHpQnvoExwED2j1-302" style="edgeStyle=orthogonalEdgeStyle;rounded=0;orthogonalLoop=1;jettySize=auto;html=1;entryX=0;entryY=0.5;entryDx=0;entryDy=0;" edge="1" parent="1" target="5zJq9rHpQnvoExwED2j1-301">
          <mxGeometry relative="1" as="geometry">
            <mxPoint x="1787.5" y="1384.5" as="sourcePoint" />
          </mxGeometry>
        </mxCell>
        <mxCell id="5zJq9rHpQnvoExwED2j1-311" value="&amp;lt;&amp;lt;Entity&amp;gt;&amp;gt; Answer" style="swimlane;fontStyle=1;align=center;verticalAlign=top;childLayout=stackLayout;horizontal=1;startSize=26;horizontalStack=0;resizeParent=1;resizeParentMax=0;resizeLast=0;collapsible=1;marginBottom=0;whiteSpace=wrap;html=1;" vertex="1" parent="1">
          <mxGeometry x="612.25" y="1614" width="383.5" height="242" as="geometry" />
        </mxCell>
        <mxCell id="5zJq9rHpQnvoExwED2j1-312" value="+ id: Integer" style="text;strokeColor=none;fillColor=none;align=left;verticalAlign=top;spacingLeft=4;spacingRight=4;overflow=hidden;rotatable=0;points=[[0,0.5],[1,0.5]];portConstraint=eastwest;whiteSpace=wrap;html=1;" vertex="1" parent="5zJq9rHpQnvoExwED2j1-311">
          <mxGeometry y="26" width="383.5" height="26" as="geometry" />
        </mxCell>
        <mxCell id="5zJq9rHpQnvoExwED2j1-313" value="+ answerText: String" style="text;strokeColor=none;fillColor=none;align=left;verticalAlign=top;spacingLeft=4;spacingRight=4;overflow=hidden;rotatable=0;points=[[0,0.5],[1,0.5]];portConstraint=eastwest;whiteSpace=wrap;html=1;" vertex="1" parent="5zJq9rHpQnvoExwED2j1-311">
          <mxGeometry y="52" width="383.5" height="26" as="geometry" />
        </mxCell>
        <mxCell id="5zJq9rHpQnvoExwED2j1-314" value="+ correct: Boolean" style="text;strokeColor=none;fillColor=none;align=left;verticalAlign=top;spacingLeft=4;spacingRight=4;overflow=hidden;rotatable=0;points=[[0,0.5],[1,0.5]];portConstraint=eastwest;whiteSpace=wrap;html=1;" vertex="1" parent="5zJq9rHpQnvoExwED2j1-311">
          <mxGeometry y="78" width="383.5" height="26" as="geometry" />
        </mxCell>
        <mxCell id="5zJq9rHpQnvoExwED2j1-315" value="+ testResults: TestResults [0..*]&amp;nbsp;{ordered,unique}" style="text;strokeColor=none;fillColor=none;align=left;verticalAlign=top;spacingLeft=4;spacingRight=4;overflow=hidden;rotatable=0;points=[[0,0.5],[1,0.5]];portConstraint=eastwest;whiteSpace=wrap;html=1;" vertex="1" parent="5zJq9rHpQnvoExwED2j1-311">
          <mxGeometry y="104" width="383.5" height="26" as="geometry" />
        </mxCell>
        <mxCell id="5zJq9rHpQnvoExwED2j1-317" value="" style="line;strokeWidth=1;fillColor=none;align=left;verticalAlign=middle;spacingTop=-1;spacingLeft=3;spacingRight=3;rotatable=0;labelPosition=right;points=[];portConstraint=eastwest;strokeColor=inherit;" vertex="1" parent="5zJq9rHpQnvoExwED2j1-311">
          <mxGeometry y="130" width="383.5" height="8" as="geometry" />
        </mxCell>
        <mxCell id="5zJq9rHpQnvoExwED2j1-318" value="+ getAllAnswers(questionId: Integer)" style="text;strokeColor=none;fillColor=none;align=left;verticalAlign=top;spacingLeft=4;spacingRight=4;overflow=hidden;rotatable=0;points=[[0,0.5],[1,0.5]];portConstraint=eastwest;whiteSpace=wrap;html=1;" vertex="1" parent="5zJq9rHpQnvoExwED2j1-311">
          <mxGeometry y="138" width="383.5" height="26" as="geometry" />
        </mxCell>
        <mxCell id="5zJq9rHpQnvoExwED2j1-319" value="+ getAnswer(answerId: Integer)" style="text;strokeColor=none;fillColor=none;align=left;verticalAlign=top;spacingLeft=4;spacingRight=4;overflow=hidden;rotatable=0;points=[[0,0.5],[1,0.5]];portConstraint=eastwest;whiteSpace=wrap;html=1;" vertex="1" parent="5zJq9rHpQnvoExwED2j1-311">
          <mxGeometry y="164" width="383.5" height="26" as="geometry" />
        </mxCell>
        <mxCell id="5zJq9rHpQnvoExwED2j1-320" value="+ editAnswer(answerId: Integer, answer: Answer)" style="text;strokeColor=none;fillColor=none;align=left;verticalAlign=top;spacingLeft=4;spacingRight=4;overflow=hidden;rotatable=0;points=[[0,0.5],[1,0.5]];portConstraint=eastwest;whiteSpace=wrap;html=1;" vertex="1" parent="5zJq9rHpQnvoExwED2j1-311">
          <mxGeometry y="190" width="383.5" height="26" as="geometry" />
        </mxCell>
        <mxCell id="jJe8YVPjVP_VvDU_hXJ1-19" value="+ giveAnswer(questionId: Integer, answerId: Integer, answer: Answer)" style="text;strokeColor=none;fillColor=none;align=left;verticalAlign=top;spacingLeft=4;spacingRight=4;overflow=hidden;rotatable=0;points=[[0,0.5],[1,0.5]];portConstraint=eastwest;whiteSpace=wrap;html=1;" vertex="1" parent="5zJq9rHpQnvoExwED2j1-311">
          <mxGeometry y="216" width="383.5" height="26" as="geometry" />
        </mxCell>
        <mxCell id="5zJq9rHpQnvoExwED2j1-321" value="" style="endArrow=diamondThin;endFill=1;endSize=24;html=1;rounded=0;entryX=0.495;entryY=0.931;entryDx=0;entryDy=0;exitX=0.494;exitY=0.002;exitDx=0;exitDy=0;entryPerimeter=0;exitPerimeter=0;" edge="1" parent="1" source="5zJq9rHpQnvoExwED2j1-311" target="5zJq9rHpQnvoExwED2j1-219">
          <mxGeometry width="160" relative="1" as="geometry">
            <mxPoint x="834" y="1539.5" as="sourcePoint" />
            <mxPoint x="769" y="1539.5" as="targetPoint" />
          </mxGeometry>
        </mxCell>
        <mxCell id="PG5oLn-KLe_XPUEzn91S-13" value="" style="endArrow=none;html=1;rounded=0;exitX=1;exitY=0.476;exitDx=0;exitDy=0;exitPerimeter=0;" edge="1" parent="1" source="5zJq9rHpQnvoExwED2j1-227">
          <mxGeometry width="50" height="50" relative="1" as="geometry">
            <mxPoint x="596" y="1748" as="sourcePoint" />
            <mxPoint x="632" y="1748" as="targetPoint" />
          </mxGeometry>
        </mxCell>
        <mxCell id="PG5oLn-KLe_XPUEzn91S-16" value="&lt;font style=&quot;font-size: 10px;&quot;&gt;0..1&lt;/font&gt;" style="text;html=1;strokeColor=none;fillColor=none;align=center;verticalAlign=middle;whiteSpace=wrap;rounded=0;fontSize=10;" vertex="1" parent="1">
          <mxGeometry x="529" y="1736" width="10" height="8.5" as="geometry" />
        </mxCell>
        <mxCell id="PG5oLn-KLe_XPUEzn91S-17" value="1" style="text;html=1;strokeColor=none;fillColor=none;align=center;verticalAlign=middle;whiteSpace=wrap;rounded=0;fontSize=10;" vertex="1" parent="1">
          <mxGeometry x="605" y="1738" width="5" height="4.5" as="geometry" />
        </mxCell>
      </root>
    </mxGraphModel>
  </diagram>
</mxfile>
